<?xml version="1.0" standalone="no"?><!DOCTYPE svg PUBLIC "-//W3C//DTD SVG 1.1//EN" "http://www.w3.org/Graphics/SVG/1.1/DTD/svg11.dtd"><svg t="1752659593677" class="icon" viewBox="0 0 1024 1024" version="1.1" xmlns="http://www.w3.org/2000/svg" p-id="11370" xmlns:xlink="http://www.w3.org/1999/xlink" width="200" height="200"><path d="M735.616 587.456V896h-151.68V445.632c0 78.336-66.88 141.824-149.312 141.824H215.68V896H64V176h151.68v267.392h184.64l122.24-267.392h171.264L624.576 327.488a252.48 252.48 0 0 1-108.928 115.904h68.352c40.192 0 78.72 15.232 107.2 42.24 28.416 27.008 44.416 63.616 44.416 101.76zM858.88 128c55.872 0 101.12 43.008 101.12 96S914.752 320 858.88 320h-101.12V224c0-52.992 45.312-96 101.12-96z" p-id="11371" data-spm-anchor-id="a313x.search_index.0.i22.57693a81nApg4O" class="selected"></path></svg>