<?xml version="1.0" standalone="no"?><!DOCTYPE svg PUBLIC "-//W3C//DTD SVG 1.1//EN" "http://www.w3.org/Graphics/SVG/1.1/DTD/svg11.dtd"><svg t="1752658994197" class="icon" viewBox="0 0 1024 1024" version="1.1" xmlns="http://www.w3.org/2000/svg" p-id="5513" xmlns:xlink="http://www.w3.org/1999/xlink" width="200" height="200"><path d="M325.05864 488.76c10.3-17.71 33.01-23.71 50.72-13.41a37 37 0 0 1 13.41 13.41l175.53 302.82c24.58 42.43 82.45 54.03 122 21.21 30.87-25.54 35.2-71.36 15.44-106.07L426.31864 232.65" fill="#194185" p-id="5514"></path><path d="M1013.20864 710.58L843.91864 417.85c-22.17-38.59-71.85-51.6-110.42-29.42-38.57 22.17-51.6 71.85-29.42 110.44L873.36864 791.6c22.17 38.57 71.85 51.6 110.42 29.4 38.57-22.19 51.6-71.85 29.42-110.44M735.90864 232.67c-22.17-38.59-71.85-51.6-110.44-29.42-38.59 22.17-51.6 71.85-29.42 110.44 22.17 38.59 71.85 51.6 110.44 29.42 38.59-22.69 52.09-71.85 29.42-110.44m-339-29.4a63.303 63.303 0 0 0-7.72-3.88c-34.91-15.9-76.19-4.77-98.37 26.52l-0.49 0.49c-0.49 0.96-0.96 1.45-1.45 2.41s-1.45 2.41-1.92 3.37L12.06864 706.23a85.403 85.403 0 0 0-10.6 29.89v1.94C0.54864 742.18 0.05864 746.38 0.01864 750.6c-0.49 23.15 8.68 46.29 27.48 61.72 15.44 13.01 33.26 18.8 51.13 19.3h2.88c27.5 0 54.5-14.48 69.44-40.04l176.98-307.17 98.86-171.21c22.08-38.61 8.7-87.81-29.89-109.93" fill="#175CD3" p-id="5515"></path></svg>